<svg 
 xmlns="http://www.w3.org/2000/svg"
 xmlns:xlink="http://www.w3.org/1999/xlink"
 width="24px" height="25px">
<defs>
<linearGradient id="PSgrad_0" x1="0%" x2="0%" y1="100%" y2="0%">
  <stop offset="0%" stop-color="rgb(16,119,244)" stop-opacity="1" />
  <stop offset="100%" stop-color="rgb(17,216,254)" stop-opacity="1" />
</linearGradient>

</defs>
<path fill-rule="evenodd"  fill="rgb(25, 177, 126)"
 d="M12.565,5.644 L11.812,5.644 C11.370,5.647 10.932,5.721 10.515,5.863 L6.747,7.821 L6.747,4.548 C6.751,3.950 7.253,3.467 7.870,3.467 L10.515,3.467 L10.515,2.057 C10.517,1.764 10.641,1.484 10.857,1.279 C11.074,1.075 11.366,0.963 11.669,0.969 L12.776,0.969 C13.395,0.973 13.895,1.458 13.899,2.057 L13.899,3.577 L16.590,3.577 C17.209,3.580 17.709,4.065 17.713,4.665 L17.713,8.040 L13.560,5.848 C13.231,5.745 12.893,5.672 12.550,5.629 L12.565,5.644 ZM20.758,17.500 C18.709,17.934 16.741,18.674 14.925,19.691 C11.910,21.327 11.782,20.999 9.423,19.910 C7.711,19.063 5.906,18.406 4.041,17.953 L2.474,15.652 C0.785,13.584 0.454,12.583 1.351,12.058 L10.515,7.382 C11.529,6.842 12.758,6.842 13.771,7.382 L22.966,12.058 C23.532,12.496 23.976,13.475 22.295,15.652 L20.758,17.500 ZM24.006,22.284 C24.006,22.572 23.888,22.848 23.677,23.051 C23.466,23.254 23.180,23.367 22.883,23.365 C22.665,23.365 22.552,23.365 22.439,23.263 C21.609,22.719 20.636,22.415 19.635,22.387 C17.954,22.387 15.821,23.913 15.821,23.913 C15.821,23.913 14.698,25.002 12.023,25.002 C10.659,25.082 9.310,24.697 8.209,23.913 C7.108,23.130 5.850,22.284 4.396,22.387 C3.370,22.254 2.338,22.576 1.584,23.263 C1.453,23.345 1.296,23.382 1.140,23.365 C0.843,23.367 0.557,23.254 0.346,23.051 C0.135,22.848 0.017,22.572 0.017,22.284 C-0.014,21.851 0.200,21.435 0.574,21.196 C0.949,20.957 3.732,17.697 8.639,21.196 C8.639,21.196 10.214,22.284 11.329,22.284 L12.452,22.284 C13.431,22.152 14.358,21.777 15.143,21.196 C16.492,20.327 19.861,18.150 23.223,21.196 C23.671,21.386 23.964,21.810 23.976,22.284 L24.006,22.284 Z"/>
<path fill="url(#PSgrad_0)"
 d="M12.565,5.644 L11.812,5.644 C11.370,5.647 10.932,5.721 10.515,5.863 L6.747,7.821 L6.747,4.548 C6.751,3.950 7.253,3.467 7.870,3.467 L10.515,3.467 L10.515,2.057 C10.517,1.764 10.641,1.484 10.857,1.279 C11.074,1.075 11.366,0.963 11.669,0.969 L12.776,0.969 C13.395,0.973 13.895,1.458 13.899,2.057 L13.899,3.577 L16.590,3.577 C17.209,3.580 17.709,4.065 17.713,4.665 L17.713,8.040 L13.560,5.848 C13.231,5.745 12.893,5.672 12.550,5.629 L12.565,5.644 ZM20.758,17.500 C18.709,17.934 16.741,18.674 14.925,19.691 C11.910,21.327 11.782,20.999 9.423,19.910 C7.711,19.063 5.906,18.406 4.041,17.953 L2.474,15.652 C0.785,13.584 0.454,12.583 1.351,12.058 L10.515,7.382 C11.529,6.842 12.758,6.842 13.771,7.382 L22.966,12.058 C23.532,12.496 23.976,13.475 22.295,15.652 L20.758,17.500 ZM24.006,22.284 C24.006,22.572 23.888,22.848 23.677,23.051 C23.466,23.254 23.180,23.367 22.883,23.365 C22.665,23.365 22.552,23.365 22.439,23.263 C21.609,22.719 20.636,22.415 19.635,22.387 C17.954,22.387 15.821,23.913 15.821,23.913 C15.821,23.913 14.698,25.002 12.023,25.002 C10.659,25.082 9.310,24.697 8.209,23.913 C7.108,23.130 5.850,22.284 4.396,22.387 C3.370,22.254 2.338,22.576 1.584,23.263 C1.453,23.345 1.296,23.382 1.140,23.365 C0.843,23.367 0.557,23.254 0.346,23.051 C0.135,22.848 0.017,22.572 0.017,22.284 C-0.014,21.851 0.200,21.435 0.574,21.196 C0.949,20.957 3.732,17.697 8.639,21.196 C8.639,21.196 10.214,22.284 11.329,22.284 L12.452,22.284 C13.431,22.152 14.358,21.777 15.143,21.196 C16.492,20.327 19.861,18.150 23.223,21.196 C23.671,21.386 23.964,21.810 23.976,22.284 L24.006,22.284 Z"/>
</svg>
